<svg width="93" height="84" viewBox="0 0 93 84" fill="none" xmlns="http://www.w3.org/2000/svg">
<path d="M83.3125 26.25V78.75H9.6875V26.25" stroke="white" stroke-linecap="round" stroke-linejoin="round"/>
<path d="M39.4475 12.25H54.0175" stroke="white" stroke-linecap="round" stroke-linejoin="round"/>
<path d="M46.5 22.75C49.7102 22.75 52.3125 20.3995 52.3125 17.5C52.3125 14.6005 49.7102 12.25 46.5 12.25C43.2898 12.25 40.6875 14.6005 40.6875 17.5C40.6875 20.3995 43.2898 22.75 46.5 22.75Z" stroke="white" stroke-linecap="round" stroke-linejoin="round"/>
<path d="M41.8888 14.28C36.1925 9.135 27.9775 5.25 23.25 5.25C18.5225 5.25 21.3125 12.81 21.3125 15.75C21.3125 18.69 20.5763 26.25 25.1875 26.25C29.7988 26.25 42.0825 21 42.0825 21" stroke="white" stroke-linecap="round" stroke-linejoin="round"/>
<path d="M51.2275 14.56C56.9238 9.415 65.0225 5.25 69.75 5.25C74.4775 5.25 71.6875 12.81 71.6875 15.75C71.6875 18.69 72.4238 26.25 67.8125 26.25C63.2013 26.25 51.2663 20.685 51.2663 20.685" stroke="white" stroke-linecap="round" stroke-linejoin="round"/>
<path d="M37.4713 22.75L32.9375 33.25L38.75 31.5L40.6875 36.75L46.5 22.75" stroke="white" stroke-linecap="round" stroke-linejoin="round"/>
<path d="M55.7225 22.575L60.0625 33.25L54.25 31.5L52.3125 36.75L46.5 22.75" stroke="white" stroke-linecap="round" stroke-linejoin="round"/>
<path d="M52.3125 78.75V36.75" stroke="white" stroke-linecap="round" stroke-linejoin="round"/>
<path d="M40.6875 36.75V78.75" stroke="white" stroke-linecap="round" stroke-linejoin="round"/>
<path d="M45.0662 26.25H47.9725L46.5 22.75L45.0662 26.25Z" stroke="white" stroke-linecap="round" stroke-linejoin="round"/>
<path d="M57.1562 26.25H87.1875V12.25H72.1525" stroke="white" stroke-linecap="round" stroke-linejoin="round"/>
<path d="M20.8475 12.25H5.8125V26.25H35.8438" stroke="white" stroke-linecap="round" stroke-linejoin="round"/>
</svg>
