<svg width="27" height="27" viewBox="0 0 27 27" fill="none" xmlns="http://www.w3.org/2000/svg">
<path d="M5.28646 11.6925C7.38646 15.9375 10.7625 19.41 14.8969 21.57L18.1052 18.2625C18.5063 17.85 19.0823 17.73 19.5854 17.895C21.2188 18.45 22.976 18.75 24.7917 18.75C25.601 18.75 26.25 19.4175 26.25 20.25V25.5C26.25 26.3325 25.601 27 24.7917 27C11.0979 27 0 15.585 0 1.5C0 0.6675 0.65625 0 1.45833 0H6.5625C7.37187 0 8.02083 0.6675 8.02083 1.5C8.02083 3.3675 8.3125 5.175 8.85208 6.855C9.0125 7.3725 8.89583 7.965 8.49479 8.3775L5.28646 11.6925Z" fill="white"/>
</svg>
